<?xml version="1.0" encoding="UTF-8" standalone="no"?>
<svg
   width="16"
   height="16"
   fill="currentColor"
   class="bi bi-newspaper"
   viewBox="0 0 16 16"
   version="1.1"
   id="svg6"
   sodipodi:docname="newspaper.svg"
   inkscape:version="1.1.1 (3bf5ae0d25, 2021-09-20)"
   xmlns:inkscape="http://www.inkscape.org/namespaces/inkscape"
   xmlns:sodipodi="http://sodipodi.sourceforge.net/DTD/sodipodi-0.dtd"
   xmlns="http://www.w3.org/2000/svg"
   xmlns:svg="http://www.w3.org/2000/svg">
  <defs
     id="defs10" />
  <sodipodi:namedview
     id="namedview8"
     pagecolor="#ffffff"
     bordercolor="#666666"
     borderopacity="1.0"
     inkscape:pageshadow="2"
     inkscape:pageopacity="0.0"
     inkscape:pagecheckerboard="0"
     showgrid="false"
     inkscape:zoom="53.125"
     inkscape:cx="7.9905882"
     inkscape:cy="7.9905882"
     inkscape:window-width="1920"
     inkscape:window-height="1009"
     inkscape:window-x="-8"
     inkscape:window-y="-8"
     inkscape:window-maximized="1"
     inkscape:current-layer="svg6" />
  <path
     d="M0 2.5A1.5 1.5 0 0 1 1.5 1h11A1.5 1.5 0 0 1 14 2.5v10.528c0 .3-.05.654-.238.972h.738a.5.5 0 0 0 .5-.5v-9a.5.5 0 0 1 1 0v9a1.5 1.5 0 0 1-1.5 1.5H1.497A1.497 1.497 0 0 1 0 13.5zM12 14c.37 0 .654-.211.853-.441.092-.106.147-.279.147-.531V2.5a.5.5 0 0 0-.5-.5h-11a.5.5 0 0 0-.5.5v11c0 .278.223.5.497.5z"
     id="path2"
     style="fill:#ffffff;fill-opacity:1" />
  <path
     d="M2 3h10v2H2zm0 3h4v3H2zm0 4h4v1H2zm0 2h4v1H2zm5-6h2v1H7zm3 0h2v1h-2zM7 8h2v1H7zm3 0h2v1h-2zm-3 2h2v1H7zm3 0h2v1h-2zm-3 2h2v1H7zm3 0h2v1h-2z"
     id="path4"
     style="fill:#ffffff;fill-opacity:1" />
</svg>
