<?xml version="1.0" encoding="UTF-8" standalone="no"?>
<svg
   width="16"
   height="16"
   fill="currentColor"
   class="bi bi-printer-fill"
   viewBox="0 0 16 16"
   version="1.1"
   id="svg6"
   sodipodi:docname="printer.svg"
   inkscape:version="1.1.1 (3bf5ae0d25, 2021-09-20)"
   xmlns:inkscape="http://www.inkscape.org/namespaces/inkscape"
   xmlns:sodipodi="http://sodipodi.sourceforge.net/DTD/sodipodi-0.dtd"
   xmlns="http://www.w3.org/2000/svg"
   xmlns:svg="http://www.w3.org/2000/svg">
  <defs
     id="defs10" />
  <sodipodi:namedview
     id="namedview8"
     pagecolor="#000000"
     bordercolor="#666666"
     borderopacity="1.0"
     inkscape:pageshadow="2"
     inkscape:pageopacity="0"
     inkscape:pagecheckerboard="0"
     showgrid="false"
     inkscape:zoom="26.5625"
     inkscape:cx="-3.6705882"
     inkscape:cy="7.2470588"
     inkscape:window-width="1920"
     inkscape:window-height="1009"
     inkscape:window-x="-8"
     inkscape:window-y="-8"
     inkscape:window-maximized="1"
     inkscape:current-layer="svg6" />
  <path
     id="path824"
     style="fill:#ffffff;fill-opacity:1"
     d="M 5 9 A 1 1 0 0 0 4 10 L 4 11 L 4 13 L 4 14 A 1 1 0 0 0 5 15 L 11 15 A 1 1 0 0 0 12 14 L 12 13 L 12 11 L 12 10 A 1 1 0 0 0 11 9 L 5 9 z " />
  <path
     style="fill:#ffffff;fill-opacity:1"
     d="M 5,1 A 2,2 0 0 0 3,3 V 4 H 13 V 3 A 2,2 0 0 0 11,1 Z"
     id="path2" />
  <path
     d="M 0,7 A 2,2 0 0 1 2,5 h 12 a 2,2 0 0 1 2,2 v 3 a 2,2 0 0 1 -2,2 H 13 V 10 A 2,2 0 0 0 11,8 H 5 a 2,2 0 0 0 -2,2 v 2 H 2 A 2,2 0 0 1 0,10 Z m 2.5,1 a 0.5,0.5 0 1 0 0,-1 0.5,0.5 0 0 0 0,1"
     id="path4"
     style="fill:#ffffff;fill-opacity:1" />
</svg>
